HIERARCHY
ROOT Hips
{
	OFFSET -3.958830 18.904000 13.208200
	CHANNELS 6 Xposition Yposition Zposition Zrotation Yrotation Xrotation 
	JOINT LHipJoint
	{
		OFFSET 0.000000 0.000000 0.000000
		CHANNELS 3 Zrotation Yrotation Xrotation
		JOINT LeftUpLeg
		{
			OFFSET 1.800000 -1.400000 0.085000
			CHANNELS 3 Zrotation Yrotation Xrotation
			JOINT LeftLeg
			{
				OFFSET 2.215000 -6.000000 0.000000
				CHANNELS 3 Zrotation Yrotation Xrotation
				JOINT LeftFoot
				{
					OFFSET 2.500000 -6.900000 0.000000
					CHANNELS 3 Zrotation Yrotation Xrotation
					JOINT LeftToeBase
					{
						OFFSET 0.200000 -0.500000 1.950000
						CHANNELS 3 Zrotation Yrotation Xrotation
						End Site
						{
							OFFSET 0.000000 0.000000 0.000000
						}
					}
				}
			}
		}
	}
	JOINT RHipJoint
	{
		OFFSET 0.000000 0.000000 0.000000
		CHANNELS 3 Zrotation Yrotation Xrotation
		JOINT RightUpLeg
		{
			OFFSET -1.800000 -1.400000 0.085000
			CHANNELS 3 Zrotation Yrotation Xrotation
			JOINT RightLeg
			{
				OFFSET -2.215000 -6.000000 0.000000
				CHANNELS 3 Zrotation Yrotation Xrotation
				JOINT RightFoot
				{
					OFFSET -2.500000 -6.900000 0.000000
					CHANNELS 3 Zrotation Yrotation Xrotation
					JOINT RightToeBase
					{
						OFFSET -0.200000 -0.500000 1.950000
						CHANNELS 3 Zrotation Yrotation Xrotation
						End Site
						{
							OFFSET 0.000000 0.000000 0.000000
						}
					}
				}
			}
		}
	}
	JOINT LowerBack
	{
		OFFSET 0.000000 0.000000 0.000000
		CHANNELS 3 Zrotation Yrotation Xrotation
		JOINT Spine
		{
			OFFSET -0.087000 1.940000 -0.288900
			CHANNELS 3 Zrotation Yrotation Xrotation
			JOINT Spine1
			{
				OFFSET 0.000000 1.950000 0.060000
				CHANNELS 3 Zrotation Yrotation Xrotation
				JOINT Neck
				{
					OFFSET 0.000000 0.000000 0.000000
					CHANNELS 3 Zrotation Yrotation Xrotation
					JOINT Neck1
					{
						OFFSET 0.000000 1.600000 0.340000
						CHANNELS 3 Zrotation Yrotation Xrotation
						JOINT Head
						{
							OFFSET 0.000000 1.667000 -0.240000
							CHANNELS 3 Zrotation Yrotation Xrotation
							End Site
							{
								OFFSET 0.000000 0.000000 0.000000
							}
						}
					}
				}
				JOINT LeftShoulder
				{
					OFFSET 0.000000 0.000000 0.000000
					CHANNELS 3 Zrotation Yrotation Xrotation
					JOINT LeftArm
					{
						OFFSET 2.700000 1.550000 -0.730000
						CHANNELS 3 Zrotation Yrotation Xrotation
						JOINT LeftForeArm
						{
							OFFSET 5.450000 0.000000 0.000000
							CHANNELS 3 Zrotation Yrotation Xrotation
							JOINT LeftHand
							{
								OFFSET 3.450000 0.000000 0.000000
								CHANNELS 3 Zrotation Yrotation Xrotation
								JOINT LeftHandIndex1
								{
									OFFSET 0.750000 0.000000 0.000000
									CHANNELS 3 Zrotation Yrotation Xrotation
									End Site
									{
										OFFSET 0.000000 0.000000 0.000000
									}
								}
							}
						}
					}
				}
				JOINT RightShoulder
				{
					OFFSET 0.000000 0.000000 0.000000
					CHANNELS 3 Zrotation Yrotation Xrotation
					JOINT RightArm
					{
						OFFSET -2.700000 1.550000 -0.730000
						CHANNELS 3 Zrotation Yrotation Xrotation
						JOINT RightForeArm
						{
							OFFSET -5.450000 0.000000 0.000000
							CHANNELS 3 Zrotation Yrotation Xrotation
							JOINT RightHand
							{
								OFFSET -3.450000 0.000000 0.000000
								CHANNELS 3 Zrotation Yrotation Xrotation
								JOINT RightHandIndex1
								{
									OFFSET -0.750000 0.000000 0.000000
									CHANNELS 3 Zrotation Yrotation Xrotation
									End Site
									{
										OFFSET 0.000000 0.000000 0.000000
									}
								}
							}
						}
					}
				}
			}
		}
	}
}
MOTION
Frames: 6
Frame Time: 0.016667
0.189660 16.896610 -1.829330 -1.324022 -11.072324 6.108879 -15.251744 13.268371 2.504946 8.813873 -2.826198 -15.476978 -8.878172 7.746310 19.618979 -0.536931 5.380946 2.856879 0.238670 -0.211300 0.204360 18.400636 -9.185832 3.941650 -11.876183 5.282163 -42.570713 4.508385 -15.648562 60.800321 -1.174608 -10.148318 1.008615 0.077420 0.606840 0.226860 -3.595387 -4.110293 -7.678222 9.201549 -5.174741 10.376880 -0.519608 -4.051380 6.564241 -2.249455 -7.603194 -10.102335 -17.533083 9.896500 28.595578 -1.706740 5.831840 0.719310 -15.361643 -13.450660 4.132361 -53.158000 -23.972918 4.573096 -41.188634 -51.172618 15.560958 -4.023128 3.337471 0.317540 0.451000 -0.393550 0.167170 20.005459 15.451275 6.476099 53.758988 5.776873 -4.805738 1.302815 14.789416 -1.248289 2.105171 -1.424697 -0.383270 0.236910 0.112550 -0.231630 
0.191210 16.923280 -1.831770 -1.139021 -11.253194 5.579715 -15.262766 13.316676 2.484069 8.609504 -2.667849 -14.598414 -8.781734 7.546151 18.778780 -0.502316 5.224918 2.904665 0.291830 -0.138230 0.246000 18.386803 -9.118446 4.013373 -12.083204 5.281049 -42.855622 4.640137 -16.513415 62.933968 -1.333494 -10.561827 0.892855 0.085510 0.535910 0.219310 -3.555475 -4.281340 -7.771853 9.012612 -5.509437 11.232355 -0.441362 -4.337262 6.547284 -2.111088 -7.871278 -10.511859 -18.795152 10.340672 29.890940 -1.779560 6.076430 -0.106110 -15.510652 -14.115690 4.224760 -52.590682 -24.031434 4.066968 -39.400828 -49.920942 14.208773 -3.939456 3.328394 0.343660 0.394020 -0.330210 0.179350 19.940544 16.201234 6.933558 53.589428 5.391061 -5.348729 1.927994 16.148690 -1.220142 2.112960 -1.419622 -0.340650 0.222130 0.062610 -0.226800 
0.196630 16.985600 -1.833490 -1.326895 -11.825972 4.820054 -15.226774 13.334813 2.401433 8.410452 -2.394301 -13.651435 -8.020023 7.190673 18.019333 -0.444630 4.954446 3.009035 0.373380 -0.014260 0.300910 18.422427 -9.064752 4.153114 -11.488102 5.794183 -43.251472 4.377875 -17.879480 67.456399 -1.633331 -11.369726 0.706322 0.108420 0.450610 0.177430 -3.661840 -4.322583 -7.870535 10.118672 -6.053872 12.463566 -1.442719 -4.610131 6.346927 -1.677746 -8.194225 -10.936746 -20.738113 11.102644 32.188438 -1.564450 6.277240 -0.718340 -16.066488 -14.740295 4.029552 -51.484435 -24.231543 3.694057 -36.836283 -46.301886 12.040677 -3.816671 3.287688 0.363280 0.315150 -0.249620 0.220920 19.570574 16.790102 7.470614 53.884980 4.666550 -6.407093 3.492188 18.985601 -1.162315 2.122538 -1.417161 -0.288560 0.230280 -0.032300 -0.206750 
0.188070 17.058830 -1.846810 -1.603620 -13.453242 4.380472 -15.207905 13.308936 2.336169 8.447588 -2.366692 -14.035236 -7.328737 7.219018 19.146946 -0.429140 4.943656 3.005027 0.389310 -0.004920 0.324690 18.445345 -8.951616 4.366299 -10.233079 7.135765 -43.755873 4.435242 -19.213650 71.831028 -1.908286 -12.173762 0.517764 0.095270 0.410490 0.154830 -3.727054 -4.323397 -7.993881 10.852357 -6.041264 13.592493 -1.852081 -4.318176 5.913567 -1.235239 -8.561968 -11.371116 -22.917460 12.136335 34.518812 -1.530800 6.406570 -0.470730 -16.779043 -14.904539 3.802504 -51.654748 -23.802926 3.279079 -32.472305 -41.612208 8.953998 -3.759650 3.210512 0.407960 0.266150 -0.210690 0.229330 19.419208 17.277056 8.027517 53.658952 3.759685 -7.482224 5.857193 21.602878 -0.884655 2.115034 -1.397063 -0.286270 0.240200 -0.057400 -0.212050 
0.171290 17.121000 -1.861760 -1.926800 -15.709705 4.499319 -15.173258 13.215101 2.291542 8.546763 -2.541582 -15.788426 -6.488592 7.466724 21.834201 -0.417246 5.115821 2.921703 0.345450 -0.065140 0.291440 18.490104 -8.890827 4.531984 -8.377691 8.826363 -43.547430 4.900537 -20.076868 74.450708 -2.068224 -12.699518 0.394230 0.060520 0.430370 0.153890 -3.861133 -4.131351 -8.036170 11.901048 -5.674196 13.995313 -2.872124 -3.632821 5.400350 -0.816258 -8.760307 -11.443983 -24.064035 13.093845 35.726543 -1.022020 6.372050 0.815730 -17.063839 -14.238607 3.471134 -52.430189 -22.650219 2.905984 -28.193235 -36.235348 6.166279 -3.787099 3.148756 0.415480 0.265710 -0.224870 0.215670 18.774861 16.939620 8.138622 54.242948 3.167359 -8.313789 9.337846 23.515885 -0.414444 2.115638 -1.390443 -0.298670 0.239460 -0.024140 -0.208940 
0.142380 17.188300 -1.883420 -1.901797 -18.324471 4.532982 -15.156085 13.019804 2.437914 9.256509 -3.124389 -19.032328 -6.935824 8.531537 26.382578 -0.368249 5.773426 2.637612 0.292510 -0.148200 0.242450 18.521751 -8.837206 4.579531 -6.075152 10.421580 -42.344192 5.343281 -20.058837 75.105209 -2.108058 -12.812312 0.367166 0.026900 0.461430 0.154500 -3.967630 -3.879315 -8.114273 12.380350 -5.167782 14.584876 -4.066296 -2.787465 4.419166 -0.503776 -9.110988 -11.391399 -25.528597 14.687275 36.615624 0.194060 6.271430 2.037620 -18.389695 -13.110583 3.011318 -52.149334 -20.279188 1.948768 -24.156907 -31.581103 4.040151 -3.826444 3.089339 0.441410 0.264810 -0.254910 0.189960 19.390497 16.313469 8.061272 54.098555 2.503051 -8.783811 12.661109 24.147570 0.103497 2.117725 -1.372543 -0.329210 0.239700 0.036330 -0.215420 
